<svg width="24" height="24" viewBox="0 0 24 24" fill="none" xmlns="http://www.w3.org/2000/svg">
<g clip-path="url(#clip0_6_77)">
<path d="M12 0C5.3724 0 0 5.3724 0 12C0 18.6276 5.3724 24 12 24C18.6276 24 24 18.6276 24 12C24 5.3724 18.6276 0 12 0ZM16.8 13.2H13.2V16.8C13.2 17.4624 12.6624 18 12 18C11.3376 18 10.8 17.4624 10.8 16.8V13.2H7.2C6.5376 13.2 6 12.6624 6 12C6 11.3376 6.5376 10.8 7.2 10.8H10.8V7.2C10.8 6.5376 11.3376 6 12 6C12.6624 6 13.2 6.5376 13.2 7.2V10.8H16.8C17.4624 10.8 18 11.3376 18 12C18 12.6624 17.4624 13.2 16.8 13.2Z" fill="#E6E6E6"/>
</g>
<defs>
<clipPath id="clip0_6_77">
<rect width="24" height="24" fill="white"/>
</clipPath>
</defs>
</svg>
