<svg width="40" height="22" viewBox="0 0 40 22" fill="none" xmlns="http://www.w3.org/2000/svg">
<g clip-path="url(#clip0_44_51)">
<path d="M25.2073 16.2215H26.4962C26.6962 16.2215 26.8073 16.1056 26.8073 15.8971V0.301257C26.8073 0.115868 26.6962 0 26.4962 0H25.2073C25.0073 0 24.8962 0.115868 24.8962 0.301257V15.8971C24.8962 16.1056 25.0073 16.2215 25.2073 16.2215Z" fill="#618CAB"/>
<path d="M12.8379 16.2215H14.149C14.3268 16.2215 14.4379 16.1056 14.4379 15.8971V13.2089C14.4379 12.1198 15.0379 11.3782 15.9934 11.3782C16.9712 11.3782 17.5712 12.1198 17.5712 13.2089V15.8971C17.5712 16.1056 17.6823 16.2215 17.8601 16.2215H19.1712C19.349 16.2215 19.4601 16.1056 19.4601 15.8971V13.2785C19.4601 12.0734 18.9268 11.077 17.9934 10.4281C18.9268 9.80242 19.4601 8.82913 19.4601 7.62411V4.93597C19.4601 4.75058 19.349 4.63471 19.1712 4.63471H17.8601C17.6823 4.63471 17.5712 4.75058 17.5712 4.93597V7.69362C17.5712 8.75961 16.9712 9.50116 15.9934 9.50116C15.0379 9.50116 14.4379 8.75961 14.4379 7.69362V4.93597C14.4379 4.75058 14.3268 4.63471 14.149 4.63471H12.8379C12.6379 4.63471 12.5268 4.75058 12.5268 4.93597V7.62411C12.5268 8.82913 13.0823 9.80242 14.0156 10.4281C13.0823 11.077 12.5268 12.0734 12.5268 13.2785V15.8971C12.5268 16.1056 12.6379 16.2215 12.8379 16.2215Z" fill="#91AFC5"/>
<path fill-rule="evenodd" clip-rule="evenodd" d="M0.365173 8.1571C0.365173 5.95561 1.78739 4.3798 3.92073 4.3798C6.03184 4.3798 7.45406 5.95561 7.45406 8.1571V12.6991C7.45406 14.9006 6.03184 16.4764 4.23184 16.4764C3.43184 16.4764 2.78739 16.1751 2.27628 15.6885V20.5549C2.27628 20.7403 2.16517 20.8562 1.98739 20.8562H0.676283C0.476283 20.8562 0.365173 20.7403 0.365173 20.5549V8.1571ZM3.92073 14.5762C4.94295 14.5762 5.54295 13.8578 5.54295 12.7686V8.08757C5.54295 6.99842 4.94295 6.28004 3.92073 6.28004C2.8985 6.28004 2.27628 6.99842 2.27628 8.08757V12.7686C2.27628 13.8578 2.8985 14.5762 3.92073 14.5762Z" fill="white"/>
<path d="M39.1466 4.63471H37.8578C37.6578 4.63471 37.5466 4.75058 37.5466 4.93597V12.2125C37.5466 13.2785 36.9467 14.02 35.9467 14.02C34.9467 14.02 34.3466 13.2785 34.3466 12.2125V4.93597C34.3466 4.75058 34.2355 4.63471 34.0355 4.63471H32.7466C32.5466 4.63471 32.4355 4.75058 32.4355 4.93597V12.1429C32.4355 14.3444 33.8355 15.8971 35.7911 15.8971C36.5022 15.8971 37.1244 15.5726 37.5466 15.0628V17.4033C37.5466 18.5389 36.9689 19.2109 35.9467 19.2109C34.9911 19.2109 34.4133 18.5389 34.3466 17.3802C34.3244 17.1484 34.2355 17.0557 34.0577 17.0557H32.7466C32.5466 17.0557 32.4355 17.1716 32.4577 17.3802C32.5689 19.6512 33.9244 21.1111 35.9467 21.1111C38.08 21.1111 39.4578 19.628 39.4578 17.3338V4.93597C39.4578 4.75058 39.3244 4.63471 39.1466 4.63471Z" fill="#316890"/>
</g>
<defs>
<clipPath id="clip0_44_51">
<rect width="40" height="21.1111" fill="white"/>
</clipPath>
</defs>
</svg>
