<?xml version="1.0" encoding="UTF-8"?>
<svg id="_Слой_2" data-name="Слой 2" xmlns="http://www.w3.org/2000/svg" viewBox="0 0 711.11 369.48">
  <defs>
    <style>
      .cls-1 {
        fill: #f5f5f5;
      }

      .cls-2 {
        fill: #316890;
      }

      .cls-3 {
        fill: none;
      }

      .cls-4 {
        fill: #acc1d0;
      }

      .cls-5 {
        fill: #c4d2dc;
      }

      .cls-6 {
        fill: #93afc3;
      }
    </style>
  </defs>
  <g id="_Слой_1-2" data-name="Слой 1">
    <path class="cls-1" d="M66.5,73.98C26.6,73.98,0,102.24,0,141.72v222.35c0,3.32,2.08,5.4,5.82,5.4H30.34c3.32,0,5.4-2.08,5.4-5.4v-87.28c9.56,8.73,21.61,14.13,36.57,14.13,33.66,0,60.26-28.26,60.26-67.74v-81.46c0-39.48-26.6-67.74-66.08-67.74Zm30.34,150.45c0,19.53-11.22,32.42-30.34,32.42s-30.76-12.88-30.76-32.42v-83.95c0-19.53,11.64-32.42,30.76-32.42s30.34,12.88,30.34,32.42v83.95Zm388.18,66.5h24.11c3.74,0,5.82-2.08,5.82-5.82V5.4c0-3.32-2.08-5.4-5.82-5.4h-24.11c-3.74,0-5.82,2.08-5.82,5.4V285.11c0,3.74,2.08,5.82,5.82,5.82Zm220.27-216.95h-24.11c-3.74,0-5.82,2.08-5.82,5.4V209.88c0,19.12-11.22,32.42-29.92,32.42s-29.92-13.3-29.92-32.42V79.38c0-3.32-2.08-5.4-5.82-5.4h-24.11c-3.74,0-5.82,2.08-5.82,5.4V208.64c0,39.48,26.18,67.33,62.76,67.33,13.3,0,24.94-5.82,32.83-14.96v41.98c0,20.36-10.81,32.42-29.92,32.42-17.87,0-28.68-12.05-29.92-32.83-.42-4.16-2.08-5.82-5.4-5.82h-24.52c-3.74,0-5.82,2.08-5.4,5.82,2.08,40.73,27.43,66.91,65.25,66.91,39.9,0,65.67-26.6,65.67-67.74V79.38c0-3.32-2.49-5.4-5.82-5.4Z"/>
    <rect class="cls-6" x="273.47" y="150.03" width="64.84" height="64.84" rx="4.09" ry="4.09"/>
    <line class="cls-3" x1="305.89" y1="138.81" x2="305.89" y2="150.03"/>
    <rect class="cls-1" x="197.41" y="73.98" width="64.84" height="64.84" rx="4.09" ry="4.09"/>
    <rect class="cls-5" x="349.53" y="73.98" width="64.84" height="64.84" rx="4.09" ry="4.09"/>
    <rect class="cls-4" x="197.41" y="226.09" width="64.84" height="64.84" rx="4.09" ry="4.09"/>
    <rect class="cls-2" x="349.53" y="226.09" width="64.84" height="64.84" rx="4.09" ry="4.09"/>
  </g>
</svg>